# xmcd CD database file
#
# Track frame offsets:
#	150
#	9494
#	21813
#	45879
#	64570
#	88100
#	114693
#	139746
#	166101
#	183627
#	200563
#	222325
#	246451
#	266413
#	282506
#	303286
#	326745
#
# Disc length: 4563 seconds
#
# Revision: 0
# Processed by: cddbd v1.5.2PL0 Copyright (c) Steve Scherf et al.
# Submitted via: CDex 1.70beta2
#
DISCID=f411d111
DTITLE=Michael Connelly - 9 Dragons Disc 5
DYEAR=2009
DGENRE=Audio Book
TTITLE0=9 Dragons Disc 5-01
TTITLE1=9 Dragons Disc 5-02
TTITLE2=9 Dragons Disc 5-03
TTITLE3=9 Dragons Disc 5-04
TTITLE4=9 Dragons Disc 5-05
TTITLE5=9 Dragons Disc 5-06
TTITLE6=9 Dragons Disc 5-07
TTITLE7=9 Dragons Disc 5-08
TTITLE8=9 Dragons Disc 5-09
TTITLE9=9 Dragons Disc 5-10
TTITLE10=9 Dragons Disc 5-11
TTITLE11=9 Dragons Disc 5-12
TTITLE12=9 Dragons Disc 5-13
TTITLE13=9 Dragons Disc 5-14
TTITLE14=9 Dragons Disc 5-15
TTITLE15=9 Dragons Disc 5-16
TTITLE16=9 Dragons Disc 5-17
EXTD=YEAR: 2009
EXTT0=
EXTT1=
EXTT2=
EXTT3=
EXTT4=
EXTT5=
EXTT6=
EXTT7=
EXTT8=
EXTT9=
EXTT10=
EXTT11=
EXTT12=
EXTT13=
EXTT14=
EXTT15=
EXTT16=
PLAYORDER=
